# xmcd
#
# Track frame offsets:
#	150
#	21462
#	45275
#	57952
#	70750
#	89462
#	107500
#	120010
#	132620
#	148607
#	159587
#	176025
#	190900
#	207430
#	223787
#
# Disc length: 3319 seconds
# Revision: 0
# Processed by: cddbd v1.5.2PL0 Copyright (c) Steve Scherf et al.
# Submitted via: dBpowerAMP V12.0
#
DISCID=d90cf50f
DTITLE=James Brown - The Very Best of James Brown
DYEAR=1997
DGENRE=R&B
TTITLE0=Living in America
TTITLE1=Get Up (I Feellike Being A) Sex MacHine
TTITLE2=I Got You
TTITLE3=It's a Man's Man's World
TTITLE4=Get Up Offa That Thing
TTITLE5=It's Too Funky in Here
TTITLE6=Please, Please, Please
TTITLE7=Think
TTITLE8=Night Train
TTITLE9=Out of Sight
TTITLE10=Hey America
TTITLE11=Make It Funky
TTITLE12=I'm Greedy Man
TTITLE13=Get on the Good Foot
TTITLE14=I'm Real
EXTD=
EXTT0=
EXTT1=
EXTT2=
EXTT3=
EXTT4=
EXTT5=
EXTT6=
EXTT7=
EXTT8=
EXTT9=
EXTT10=
EXTT11=
EXTT12=
EXTT13=
EXTT14=
PLAYORDER=
